<?xml version="1.0" encoding="utf-8"?>
<!-- Generator: Adobe Illustrator 18.1.0, SVG Export Plug-In . SVG Version: 6.00 Build 0)  -->
<svg version="1.1" id="Ebene_1" xmlns="http://www.w3.org/2000/svg" xmlns:xlink="http://www.w3.org/1999/xlink" x="0px" y="0px"
	 viewBox="0 0 295 81.8" enable-background="new 0 0 295 81.8" xml:space="preserve">
<g>
	
		<linearGradient id="SVGID_1_" gradientUnits="userSpaceOnUse" x1="-334.7715" y1="406.9632" x2="-334.6273" y2="406.8191" gradientTransform="matrix(721.094 0 0 -482.937 241592.75 196537.5781)">
		<stop  offset="0" style="stop-color:#CCCED0"/>
		<stop  offset="1" style="stop-color:#84838B"/>
	</linearGradient>
	<path fill="url(#SVGID_1_)" d="M243,69.6c-28.7,0-52-15.6-52-34.8C191,15.6,214.3,0,243,0c28.7,0,52,15.6,52,34.8
		C295,54,271.7,69.6,243,69.6z M251,13.6c-21.8,0-39.5,10.7-39.5,23.8s17.7,23.8,39.5,23.8c21.8,0,37.9-7.3,37.9-23.8
		C288.9,20.9,272.8,13.6,251,13.6z"/>
	
		<linearGradient id="SVGID_2_" gradientUnits="userSpaceOnUse" x1="-334.8276" y1="407.4303" x2="-334.6835" y2="407.2862" gradientTransform="matrix(398 0 0 -406.124 133491.6563 165492.5469)">
		<stop  offset="0" style="stop-color:#356AB3"/>
		<stop  offset="1" style="stop-color:#1D5DA9"/>
	</linearGradient>
	<path fill="url(#SVGID_2_)" d="M270.2,53.9c0,0,3.1,0.9,5,1.9c0.6,0.3,1.7,1,2.5,1.8c0.8,0.8,1.2,1.7,1.2,1.7l12.4,20.9l-20,0
		l-9.4-17.6c0,0-1.9-3.3-3.1-4.3c-1-0.8-1.4-1.1-2.4-1.1c-0.7,0-4.8,0-4.8,0l0,22.9l-17.7,0V21.6h35.6c0,0,16.2,0.3,16.2,15.7
		S270.2,53.9,270.2,53.9z M262.5,34.3l-10.7,0l0,10l10.7,0c0,0,5,0,5-5.1C267.5,34,262.5,34.3,262.5,34.3z"/>
</g>
<text transform="matrix(1 0 0 1 0 80.148)" fill="#356AB3" font-family="'advent-Bd1'" font-size="83.6616">Adhere</text>
</svg>
